<mxfile host="65bd71144e">
    <diagram id="LxMl-2SoCOkEbOTOW2Gz" name="第 1 页">
        <mxGraphModel dx="887" dy="558" grid="1" gridSize="10" guides="1" tooltips="1" connect="1" arrows="1" fold="1" page="1" pageScale="1" pageWidth="1920" pageHeight="1200" math="0" shadow="0">
            <root>
                <mxCell id="0"/>
                <mxCell id="1" parent="0"/>
                <mxCell id="CVLv9CD3JrJjsB5Fl6TC-63" value="" style="rounded=0;whiteSpace=wrap;html=1;" parent="1" vertex="1">
                    <mxGeometry x="180" y="120" width="850" height="500" as="geometry"/>
                </mxCell>
                <mxCell id="CVLv9CD3JrJjsB5Fl6TC-84" style="edgeStyle=orthogonalEdgeStyle;rounded=0;orthogonalLoop=1;jettySize=auto;html=1;entryX=0;entryY=0.5;entryDx=0;entryDy=0;fontSize=17;fontColor=#FDFCFC;endArrow=none;endFill=0;" parent="1" source="CVLv9CD3JrJjsB5Fl6TC-62" target="CVLv9CD3JrJjsB5Fl6TC-29" edge="1">
                    <mxGeometry relative="1" as="geometry"/>
                </mxCell>
                <mxCell id="CVLv9CD3JrJjsB5Fl6TC-86" style="edgeStyle=orthogonalEdgeStyle;rounded=0;orthogonalLoop=1;jettySize=auto;html=1;entryX=0;entryY=0.5;entryDx=0;entryDy=0;fontSize=17;fontColor=#FDFCFC;endArrow=none;endFill=0;" parent="1" source="CVLv9CD3JrJjsB5Fl6TC-62" target="CVLv9CD3JrJjsB5Fl6TC-30" edge="1">
                    <mxGeometry relative="1" as="geometry">
                        <Array as="points">
                            <mxPoint x="480" y="228"/>
                            <mxPoint x="480" y="390"/>
                        </Array>
                    </mxGeometry>
                </mxCell>
                <mxCell id="CVLv9CD3JrJjsB5Fl6TC-87" style="edgeStyle=orthogonalEdgeStyle;rounded=0;orthogonalLoop=1;jettySize=auto;html=1;entryX=0;entryY=0.5;entryDx=0;entryDy=0;fontSize=17;fontColor=#FDFCFC;endArrow=none;endFill=0;" parent="1" source="CVLv9CD3JrJjsB5Fl6TC-62" target="CVLv9CD3JrJjsB5Fl6TC-75" edge="1">
                    <mxGeometry relative="1" as="geometry">
                        <Array as="points">
                            <mxPoint x="480" y="228"/>
                            <mxPoint x="480" y="568"/>
                        </Array>
                    </mxGeometry>
                </mxCell>
                <mxCell id="CVLv9CD3JrJjsB5Fl6TC-62" value="" style="rounded=0;whiteSpace=wrap;html=1;fillColor=#bac8d3;strokeColor=#23445d;" parent="1" vertex="1">
                    <mxGeometry x="210" y="173.75" width="260" height="108.75" as="geometry"/>
                </mxCell>
                <mxCell id="CVLv9CD3JrJjsB5Fl6TC-6" value="Bucket Auth(Project based)" style="text;html=1;strokeColor=none;fillColor=none;align=center;verticalAlign=middle;whiteSpace=wrap;rounded=0;" parent="1" vertex="1">
                    <mxGeometry x="270" y="160" width="160" height="50" as="geometry"/>
                </mxCell>
                <mxCell id="CVLv9CD3JrJjsB5Fl6TC-7" value="项目-ns1" style="rounded=0;whiteSpace=wrap;html=1;fillColor=#0050ef;fontColor=#ffffff;strokeColor=#001DBC;" parent="1" vertex="1">
                    <mxGeometry x="220" y="203.75" width="100" height="35" as="geometry"/>
                </mxCell>
                <mxCell id="CVLv9CD3JrJjsB5Fl6TC-26" value="bucket-ns1" style="rounded=0;whiteSpace=wrap;html=1;fillColor=#f8cecc;strokeColor=#b85450;" parent="1" vertex="1">
                    <mxGeometry x="340" y="203.75" width="100" height="35" as="geometry"/>
                </mxCell>
                <mxCell id="CVLv9CD3JrJjsB5Fl6TC-28" value="minio/ns1/dataset" style="rounded=0;whiteSpace=wrap;html=1;fillColor=#008a00;strokeColor=#005700;fontColor=#ffffff;" parent="1" vertex="1">
                    <mxGeometry x="500" y="245" width="100" height="20" as="geometry"/>
                </mxCell>
                <mxCell id="CVLv9CD3JrJjsB5Fl6TC-47" style="edgeStyle=orthogonalEdgeStyle;rounded=0;orthogonalLoop=1;jettySize=auto;html=1;entryX=0;entryY=0.5;entryDx=0;entryDy=0;fontColor=#FDFCFC;endArrow=none;endFill=0;" parent="1" source="CVLv9CD3JrJjsB5Fl6TC-29" target="CVLv9CD3JrJjsB5Fl6TC-36" edge="1">
                    <mxGeometry relative="1" as="geometry"/>
                </mxCell>
                <mxCell id="CVLv9CD3JrJjsB5Fl6TC-48" style="edgeStyle=orthogonalEdgeStyle;rounded=0;orthogonalLoop=1;jettySize=auto;html=1;entryX=0;entryY=0.5;entryDx=0;entryDy=0;fontColor=#FDFCFC;endArrow=none;endFill=0;" parent="1" source="CVLv9CD3JrJjsB5Fl6TC-29" target="CVLv9CD3JrJjsB5Fl6TC-38" edge="1">
                    <mxGeometry relative="1" as="geometry"/>
                </mxCell>
                <mxCell id="CVLv9CD3JrJjsB5Fl6TC-49" style="edgeStyle=orthogonalEdgeStyle;rounded=0;orthogonalLoop=1;jettySize=auto;html=1;entryX=0;entryY=0.5;entryDx=0;entryDy=0;fontColor=#FDFCFC;endArrow=none;endFill=0;" parent="1" source="CVLv9CD3JrJjsB5Fl6TC-29" target="CVLv9CD3JrJjsB5Fl6TC-40" edge="1">
                    <mxGeometry relative="1" as="geometry"/>
                </mxCell>
                <mxCell id="CVLv9CD3JrJjsB5Fl6TC-29" value="Dataset" style="rounded=0;whiteSpace=wrap;html=1;" parent="1" vertex="1">
                    <mxGeometry x="500" y="210" width="100" height="35" as="geometry"/>
                </mxCell>
                <mxCell id="CVLv9CD3JrJjsB5Fl6TC-50" style="edgeStyle=orthogonalEdgeStyle;rounded=0;orthogonalLoop=1;jettySize=auto;html=1;entryX=0;entryY=0.5;entryDx=0;entryDy=0;fontColor=#FDFCFC;endArrow=none;endFill=0;" parent="1" source="CVLv9CD3JrJjsB5Fl6TC-30" target="CVLv9CD3JrJjsB5Fl6TC-42" edge="1">
                    <mxGeometry relative="1" as="geometry"/>
                </mxCell>
                <mxCell id="CVLv9CD3JrJjsB5Fl6TC-51" style="edgeStyle=orthogonalEdgeStyle;rounded=0;orthogonalLoop=1;jettySize=auto;html=1;entryX=0;entryY=0.5;entryDx=0;entryDy=0;fontColor=#FDFCFC;endArrow=none;endFill=0;" parent="1" source="CVLv9CD3JrJjsB5Fl6TC-30" target="CVLv9CD3JrJjsB5Fl6TC-44" edge="1">
                    <mxGeometry relative="1" as="geometry"/>
                </mxCell>
                <mxCell id="CVLv9CD3JrJjsB5Fl6TC-52" style="edgeStyle=orthogonalEdgeStyle;rounded=0;orthogonalLoop=1;jettySize=auto;html=1;entryX=0;entryY=0.25;entryDx=0;entryDy=0;fontColor=#FDFCFC;endArrow=none;endFill=0;" parent="1" source="CVLv9CD3JrJjsB5Fl6TC-30" target="CVLv9CD3JrJjsB5Fl6TC-46" edge="1">
                    <mxGeometry relative="1" as="geometry"/>
                </mxCell>
                <mxCell id="CVLv9CD3JrJjsB5Fl6TC-30" value="Model" style="rounded=0;whiteSpace=wrap;html=1;" parent="1" vertex="1">
                    <mxGeometry x="500" y="372.5" width="100" height="35" as="geometry"/>
                </mxCell>
                <mxCell id="CVLv9CD3JrJjsB5Fl6TC-34" value="minio/ns1/model" style="rounded=0;whiteSpace=wrap;html=1;fillColor=#d80073;strokeColor=#A50040;fontColor=#ffffff;" parent="1" vertex="1">
                    <mxGeometry x="500" y="407.5" width="100" height="20" as="geometry"/>
                </mxCell>
                <mxCell id="CVLv9CD3JrJjsB5Fl6TC-35" value="&lt;font color=&quot;#fdfcfc&quot;&gt;minio/ns1/dataset/ds1&lt;/font&gt;" style="rounded=0;whiteSpace=wrap;html=1;fillColor=#008a00;strokeColor=#005700;fontColor=#ffffff;" parent="1" vertex="1">
                    <mxGeometry x="650" y="237.5" width="130" height="20" as="geometry"/>
                </mxCell>
                <mxCell id="CVLv9CD3JrJjsB5Fl6TC-57" style="edgeStyle=orthogonalEdgeStyle;rounded=0;orthogonalLoop=1;jettySize=auto;html=1;entryX=0;entryY=0.5;entryDx=0;entryDy=0;fontColor=#FDFCFC;endArrow=none;endFill=0;" parent="1" source="CVLv9CD3JrJjsB5Fl6TC-36" target="CVLv9CD3JrJjsB5Fl6TC-54" edge="1">
                    <mxGeometry relative="1" as="geometry"/>
                </mxCell>
                <mxCell id="CVLv9CD3JrJjsB5Fl6TC-59" style="edgeStyle=orthogonalEdgeStyle;rounded=0;orthogonalLoop=1;jettySize=auto;html=1;entryX=0;entryY=0.5;entryDx=0;entryDy=0;fontColor=#FDFCFC;endArrow=none;endFill=0;" parent="1" source="CVLv9CD3JrJjsB5Fl6TC-36" target="CVLv9CD3JrJjsB5Fl6TC-56" edge="1">
                    <mxGeometry relative="1" as="geometry"/>
                </mxCell>
                <mxCell id="CVLv9CD3JrJjsB5Fl6TC-36" value="ds1" style="rounded=0;whiteSpace=wrap;html=1;" parent="1" vertex="1">
                    <mxGeometry x="650" y="217.5" width="130" height="20" as="geometry"/>
                </mxCell>
                <mxCell id="CVLv9CD3JrJjsB5Fl6TC-37" value="&lt;font color=&quot;#fdfcfc&quot;&gt;minio/ns1/dataset/ds2&lt;/font&gt;" style="rounded=0;whiteSpace=wrap;html=1;fillColor=#008a00;strokeColor=#005700;fontColor=#ffffff;" parent="1" vertex="1">
                    <mxGeometry x="650" y="285" width="130" height="20" as="geometry"/>
                </mxCell>
                <mxCell id="CVLv9CD3JrJjsB5Fl6TC-38" value="ds2" style="rounded=0;whiteSpace=wrap;html=1;" parent="1" vertex="1">
                    <mxGeometry x="650" y="265" width="130" height="20" as="geometry"/>
                </mxCell>
                <mxCell id="CVLv9CD3JrJjsB5Fl6TC-39" value="&lt;font color=&quot;#fdfcfc&quot;&gt;minio/ns1/dataset/ds3&lt;/font&gt;" style="rounded=0;whiteSpace=wrap;html=1;fillColor=#008a00;strokeColor=#005700;fontColor=#ffffff;" parent="1" vertex="1">
                    <mxGeometry x="650" y="330" width="130" height="20" as="geometry"/>
                </mxCell>
                <mxCell id="CVLv9CD3JrJjsB5Fl6TC-40" value="ds3" style="rounded=0;whiteSpace=wrap;html=1;" parent="1" vertex="1">
                    <mxGeometry x="650" y="310" width="130" height="20" as="geometry"/>
                </mxCell>
                <mxCell id="CVLv9CD3JrJjsB5Fl6TC-41" value="&lt;font color=&quot;#fdfcfc&quot;&gt;minio/ns1/model/m1&lt;/font&gt;" style="rounded=0;whiteSpace=wrap;html=1;fillColor=#d80073;strokeColor=#A50040;fontColor=#ffffff;" parent="1" vertex="1">
                    <mxGeometry x="650" y="400" width="130" height="20" as="geometry"/>
                </mxCell>
                <mxCell id="CVLv9CD3JrJjsB5Fl6TC-42" value="m1" style="rounded=0;whiteSpace=wrap;html=1;" parent="1" vertex="1">
                    <mxGeometry x="650" y="380" width="130" height="20" as="geometry"/>
                </mxCell>
                <mxCell id="CVLv9CD3JrJjsB5Fl6TC-43" value="&lt;font color=&quot;#fdfcfc&quot;&gt;minio/ns1/model/m2&lt;/font&gt;" style="rounded=0;whiteSpace=wrap;html=1;fillColor=#d80073;strokeColor=#A50040;fontColor=#ffffff;" parent="1" vertex="1">
                    <mxGeometry x="650" y="455" width="130" height="20" as="geometry"/>
                </mxCell>
                <mxCell id="CVLv9CD3JrJjsB5Fl6TC-44" value="m2" style="rounded=0;whiteSpace=wrap;html=1;" parent="1" vertex="1">
                    <mxGeometry x="650" y="435" width="130" height="20" as="geometry"/>
                </mxCell>
                <mxCell id="CVLv9CD3JrJjsB5Fl6TC-45" value="&lt;font color=&quot;#fdfcfc&quot;&gt;minio/ns1/model/m3&lt;/font&gt;" style="rounded=0;whiteSpace=wrap;html=1;fillColor=#d80073;strokeColor=#A50040;fontColor=#ffffff;" parent="1" vertex="1">
                    <mxGeometry x="650" y="515" width="130" height="20" as="geometry"/>
                </mxCell>
                <mxCell id="CVLv9CD3JrJjsB5Fl6TC-46" value="m3" style="rounded=0;whiteSpace=wrap;html=1;" parent="1" vertex="1">
                    <mxGeometry x="650" y="495" width="130" height="20" as="geometry"/>
                </mxCell>
                <mxCell id="CVLv9CD3JrJjsB5Fl6TC-53" value="&lt;font color=&quot;#fdfcfc&quot;&gt;minio/ns1/dataset/ds1/v1&lt;/font&gt;" style="rounded=0;whiteSpace=wrap;html=1;fillColor=#60a917;strokeColor=#2D7600;fontColor=#ffffff;" parent="1" vertex="1">
                    <mxGeometry x="830" y="236.25" width="140" height="20" as="geometry"/>
                </mxCell>
                <mxCell id="CVLv9CD3JrJjsB5Fl6TC-54" value="ds1-v1" style="rounded=0;whiteSpace=wrap;html=1;" parent="1" vertex="1">
                    <mxGeometry x="830" y="217.5" width="140" height="17.5" as="geometry"/>
                </mxCell>
                <mxCell id="CVLv9CD3JrJjsB5Fl6TC-55" value="&lt;font color=&quot;#fdfcfc&quot;&gt;minio/ns1/dataset/ds1/v2&lt;/font&gt;" style="rounded=0;whiteSpace=wrap;html=1;fillColor=#60a917;strokeColor=#2D7600;fontColor=#ffffff;" parent="1" vertex="1">
                    <mxGeometry x="830" y="283.75" width="140" height="20" as="geometry"/>
                </mxCell>
                <mxCell id="CVLv9CD3JrJjsB5Fl6TC-56" value="ds1-v2" style="rounded=0;whiteSpace=wrap;html=1;" parent="1" vertex="1">
                    <mxGeometry x="830" y="266.25" width="140" height="17.5" as="geometry"/>
                </mxCell>
                <mxCell id="CVLv9CD3JrJjsB5Fl6TC-65" value="&lt;font color=&quot;#000000&quot; style=&quot;font-size: 17px;&quot;&gt;SystemDatasource Storage Structure&lt;/font&gt;" style="text;html=1;resizable=0;autosize=1;align=center;verticalAlign=middle;points=[];fillColor=none;strokeColor=none;rounded=0;fontColor=#FDFCFC;fontStyle=1;fontSize=17;" parent="1" vertex="1">
                    <mxGeometry x="460" y="130" width="320" height="30" as="geometry"/>
                </mxCell>
                <mxCell id="CVLv9CD3JrJjsB5Fl6TC-71" value="项目-ns1" style="rounded=0;whiteSpace=wrap;html=1;fillColor=#0050ef;fontColor=#ffffff;strokeColor=#001DBC;" parent="1" vertex="1">
                    <mxGeometry x="230" y="211.25" width="100" height="35" as="geometry"/>
                </mxCell>
                <mxCell id="CVLv9CD3JrJjsB5Fl6TC-72" value="bucket-ns1" style="rounded=0;whiteSpace=wrap;html=1;fillColor=#f8cecc;strokeColor=#b85450;" parent="1" vertex="1">
                    <mxGeometry x="350" y="211.25" width="100" height="35" as="geometry"/>
                </mxCell>
                <mxCell id="CVLv9CD3JrJjsB5Fl6TC-73" value="Project-ns1" style="rounded=0;whiteSpace=wrap;html=1;fillColor=#0050ef;fontColor=#ffffff;strokeColor=#001DBC;" parent="1" vertex="1">
                    <mxGeometry x="240" y="222.5" width="100" height="35" as="geometry"/>
                </mxCell>
                <mxCell id="CVLv9CD3JrJjsB5Fl6TC-74" value="Bucket-ns1" style="rounded=0;whiteSpace=wrap;html=1;fillColor=#f8cecc;strokeColor=#b85450;" parent="1" vertex="1">
                    <mxGeometry x="360" y="223.75" width="100" height="35" as="geometry"/>
                </mxCell>
                <mxCell id="CVLv9CD3JrJjsB5Fl6TC-81" style="edgeStyle=orthogonalEdgeStyle;rounded=0;orthogonalLoop=1;jettySize=auto;html=1;entryX=0;entryY=0.75;entryDx=0;entryDy=0;fontSize=17;fontColor=#000000;endArrow=none;endFill=0;" parent="1" source="CVLv9CD3JrJjsB5Fl6TC-75" target="CVLv9CD3JrJjsB5Fl6TC-80" edge="1">
                    <mxGeometry relative="1" as="geometry"/>
                </mxCell>
                <mxCell id="CVLv9CD3JrJjsB5Fl6TC-75" value="Datasource(Local)" style="rounded=0;whiteSpace=wrap;html=1;" parent="1" vertex="1">
                    <mxGeometry x="500" y="550" width="100" height="35" as="geometry"/>
                </mxCell>
                <mxCell id="CVLv9CD3JrJjsB5Fl6TC-76" value="minio/ns1/local/" style="rounded=0;whiteSpace=wrap;html=1;fillColor=#bac8d3;strokeColor=#23445d;fontColor=#FDFCFC;" parent="1" vertex="1">
                    <mxGeometry x="500" y="585" width="100" height="20" as="geometry"/>
                </mxCell>
                <mxCell id="CVLv9CD3JrJjsB5Fl6TC-79" value="&lt;font color=&quot;#fdfcfc&quot;&gt;minio/ns1/local/ds1&lt;/font&gt;" style="rounded=0;whiteSpace=wrap;html=1;fillColor=#bac8d3;strokeColor=#23445d;" parent="1" vertex="1">
                    <mxGeometry x="650" y="577.5" width="130" height="20" as="geometry"/>
                </mxCell>
                <mxCell id="CVLv9CD3JrJjsB5Fl6TC-80" value="local-ds1" style="rounded=0;whiteSpace=wrap;html=1;" parent="1" vertex="1">
                    <mxGeometry x="650" y="557.5" width="130" height="20" as="geometry"/>
                </mxCell>
            </root>
        </mxGraphModel>
    </diagram>
</mxfile>